<?xml version="1.0" standalone="no"?>
<!DOCTYPE svg PUBLIC "-//W3C//DTD SVG 20010904//EN"
 "http://www.w3.org/TR/2001/REC-SVG-20010904/DTD/svg10.dtd">
<svg version="1.0" xmlns="http://www.w3.org/2000/svg"
 width="237.000000pt" height="101.000000pt" viewBox="0 0 237.000000 101.000000"
 preserveAspectRatio="xMidYMid meet">

<g transform="translate(0.000000,101.000000) scale(0.100000,-0.100000)"
fill="#000000" stroke="none">
<path d="M359 982 c-166 -44 -294 -190 -335 -382 -49 -232 88 -478 313 -563
57 -22 65 -22 798 -25 476 -2 768 1 818 7 206 28 357 175 404 394 55 255 -115
523 -365 576 -36 8 -290 11 -810 10 -681 0 -764 -2 -823 -17z m1689 -32 c178
-69 292 -243 292 -446 0 -188 -100 -348 -268 -427 l-67 -32 -816 0 -815 0 -75
37 c-97 48 -167 121 -216 224 -32 67 -37 87 -41 174 -6 120 17 206 79 299 65
98 168 168 281 191 24 4 389 7 813 7 l770 -2 63 -25z"/>
<path d="M1004 917 c-3 -8 -4 -32 -2 -53 2 -31 7 -39 23 -39 17 0 20 7 20 50
0 39 -4 50 -18 53 -9 2 -20 -3 -23 -11z m26 -43 c0 -27 -4 -43 -10 -39 -17 11
-11 85 7 85 2 0 3 -21 3 -46z"/>
<path d="M1067 923 c-4 -3 -7 -28 -7 -55 0 -45 2 -49 23 -46 18 2 23 10 25 41
4 47 -20 82 -41 60z m23 -49 c0 -27 -4 -43 -10 -39 -17 11 -11 85 7 85 2 0 3
-21 3 -46z"/>
<path d="M1127 923 c-13 -12 -7 -43 8 -43 11 0 13 -8 9 -32 -4 -25 -3 -29 5
-18 7 10 11 11 11 3 0 -18 27 -16 33 1 3 8 0 20 -8 26 -11 9 -13 7 -9 -12 l5
-23 -10 23 c-7 14 -7 31 -1 48 15 38 12 40 -15 14 -14 -13 -25 -18 -25 -12 0
7 5 12 10 12 6 0 10 5 10 10 0 11 -13 13 -23 3z"/>
<path d="M1251 916 c-7 -8 -11 -31 -9 -52 2 -28 9 -39 26 -45 22 -9 23 -7 20
48 -3 58 -16 75 -37 49z m29 -47 c0 -21 -4 -39 -10 -39 -5 0 -10 21 -10 46 0
27 4 43 10 39 6 -3 10 -24 10 -46z"/>
<path d="M1312 880 c3 -47 6 -55 23 -55 17 0 20 8 23 53 2 28 -1 52 -6 52 -4
0 -8 -19 -8 -42 1 -24 -3 -43 -9 -43 -5 0 -10 17 -11 37 0 21 -4 41 -8 45 -4
4 -6 -17 -4 -47z"/>
<path d="M1385 894 c-4 -22 -9 -47 -12 -56 -2 -10 0 -18 6 -18 6 0 11 8 11 18
1 16 1 16 14 0 21 -28 24 -22 15 29 -12 64 -26 75 -34 27z m25 -25 c0 -5 -4
-9 -10 -9 -5 0 -10 7 -10 16 0 8 5 12 10 9 6 -3 10 -10 10 -16z"/>
<path d="M1440 876 c0 -49 2 -56 20 -56 11 0 20 5 20 10 0 6 -6 9 -12 8 -9 -2
-12 10 -10 39 1 23 -2 45 -8 48 -6 4 -10 -15 -10 -49z"/>
<path d="M1499 928 c-5 -21 -2 -108 4 -108 4 0 7 25 7 55 0 30 -2 55 -5 55 -3
0 -5 -1 -6 -2z"/>
<path d="M1530 920 c0 -5 5 -10 11 -10 7 0 10 -17 7 -45 -2 -25 0 -45 4 -45 5
0 8 20 8 45 0 25 5 45 10 45 6 0 10 5 10 10 0 6 -11 10 -25 10 -14 0 -25 -4
-25 -10z"/>
<path d="M1606 896 c2 -16 4 -39 4 -52 0 -38 17 -28 23 14 3 20 8 45 12 55 4
10 3 17 -4 17 -6 0 -11 -9 -11 -20 0 -25 -17 -26 -23 -2 -2 9 -3 4 -1 -12z"/>
<path d="M970 872 c0 -29 4 -52 9 -52 8 0 3 90 -5 99 -2 2 -4 -19 -4 -47z"/>
<path d="M1779 820 c-48 -8 -97 -39 -117 -73 -15 -24 -15 -29 -2 -37 11 -7 18
-5 25 7 40 69 111 98 171 70 74 -36 90 -150 36 -260 -18 -35 -41 -72 -53 -83
l-22 -19 6 113 c6 112 6 112 -17 112 -22 0 -23 -4 -29 -97 -5 -101 -12 -133
-29 -133 -5 0 -8 45 -7 108 1 98 0 107 -17 107 -22 0 -33 -45 -33 -146 -1 -52
3 -72 18 -90 17 -21 22 -22 40 -11 31 18 28 -10 -5 -53 -33 -44 -37 -92 -8
-111 19 -13 24 -12 44 4 19 15 24 31 28 83 4 58 8 68 55 123 69 83 97 147 97
219 0 122 -70 186 -181 167z m-18 -567 c-9 -17 -10 -17 -17 0 -3 10 -1 30 7
45 l13 27 4 -27 c2 -15 -1 -35 -7 -45z"/>
<path d="M1194 752 c-18 -11 -32 -78 -39 -187 -3 -55 -8 -135 -11 -177 l-6
-78 26 0 c25 0 26 3 26 53 l1 52 22 -45 c17 -35 27 -45 46 -45 29 0 56 40 67
99 8 45 -9 44 -21 -1 -3 -16 -14 -36 -23 -46 -15 -17 -17 -16 -33 15 -16 32
-16 33 7 61 31 37 42 94 21 114 -20 20 -51 9 -67 -25 -7 -15 -15 -22 -17 -15
-2 6 9 40 25 75 35 75 45 113 37 139 -6 19 -39 25 -61 11z m30 -69 c-3 -21
-11 -42 -17 -48 -6 -7 -8 1 -3 24 3 18 6 40 6 47 0 8 5 14 10 14 7 0 8 -14 4
-37z m10 -199 c-24 -48 -50 -60 -40 -18 11 44 36 78 48 66 7 -7 5 -22 -8 -48z"/>
<path d="M569 727 c-66 -19 -110 -48 -143 -95 -80 -113 -20 -282 99 -282 47 0
59 8 49 34 -4 11 -19 16 -43 16 -77 0 -121 94 -87 185 65 168 326 164 326 -5
0 -57 -29 -100 -67 -100 l-25 0 3 88 c3 82 2 87 -17 90 -29 4 -34 -18 -34
-168 0 -128 -12 -239 -31 -298 -10 -30 -14 -32 -55 -32 -44 0 -44 0 -44 -35 0
-39 19 -46 55 -21 13 9 49 13 102 13 124 0 189 39 221 132 26 76 -2 155 -70
200 l-36 23 24 35 c46 68 23 169 -47 205 -48 25 -123 31 -180 15z m213 -304
c38 -42 48 -66 48 -123 0 -84 -37 -135 -110 -151 -23 -5 -57 -7 -76 -3 -34 6
-34 7 -19 30 23 35 45 131 45 196 0 44 4 59 18 67 31 19 67 12 94 -16z"/>
<path d="M1532 590 c3 -98 11 -125 24 -74 12 48 24 3 18 -66 -5 -53 -3 -68 9
-79 12 -9 21 -10 36 -1 25 13 38 35 49 88 13 58 2 61 -17 5 -25 -73 -42 -68
-34 10 5 61 4 67 -21 92 -18 18 -26 36 -25 53 4 56 0 72 -21 72 -19 0 -20 -6
-18 -100z"/>
<path d="M1380 568 c-28 -45 -33 -70 -28 -133 7 -82 50 -116 108 -85 19 10 65
118 55 128 -6 6 -4 8 -30 -43 -15 -30 -27 -41 -47 -43 -23 -3 -30 2 -38 24 -6
15 -9 28 -8 29 55 36 69 51 77 82 13 48 0 73 -39 73 -23 0 -35 -8 -50 -32z
m56 -30 c-4 -18 -16 -42 -27 -53 l-21 -20 7 35 c9 44 23 70 37 70 7 0 8 -12 4
-32z"/>
<path d="M973 528 c-28 -32 -43 -81 -43 -144 0 -77 13 -106 48 -102 16 2 31
12 37 26 11 25 25 29 25 7 0 -21 27 -30 45 -15 18 15 48 104 42 127 -2 12 -8
3 -15 -22 -6 -22 -19 -49 -27 -60 -15 -18 -16 -11 -11 93 4 106 4 112 -15 112
-10 0 -19 -5 -19 -10 0 -7 -6 -7 -19 0 -26 13 -24 14 -48 -12z m52 -39 c9 -29
-3 -123 -19 -144 -25 -34 -39 -8 -33 61 9 91 36 134 52 83z"/>
</g>
</svg>
